<svg xmlns="http://www.w3.org/2000/svg" width="10.183" height="12.812" fill-rule="evenodd" clip-rule="evenodd" image-rendering="optimizeQuality" shape-rendering="geometricPrecision" text-rendering="geometricPrecision" viewBox="0 0 269 339"><path fill-rule="nonzero" d="M253 134l-24 182c-2 13-13 23-27 23l-135 0c-13 0-24-10-26-23l-24-182c-2-16 10-30 26-30l183 0c16 0 29 14 27 30zm-48 179l24-182c1-2-1-3-3-3l-183 0c-2 0-3 1-3 3l24 182c0 1 2 2 3 2l135 0c2 0 3-1 3-2zM32 29l39 0c2-16 17-29 34-29l60 0c17 0 31 13 33 29l39 0c18 0 32 15 32 33l0 20c0 7-5 12-11 12l-246 0c-7 0-12-6-12-12l0-20c0-18 15-33 32-33zm63 0l79 0c-2-3-5-6-9-6l-60 0c-4 0-8 3-10 6zm142 24c-68 0-136 0-205 0-5 0-9 4-9 9l0 8 223 0 0-8c0-5-4-9-9-9z"/><path fill-rule="nonzero" d="M68 164c-1-6 3-12 10-13 6-1 12 4 13 10l17 120c1 6-4 12-10 13-7 1-13-3-13-10l-17-120zM179 161c1-6 6-11 13-10 6 1 11 7 10 13l-17 120c-1 7-7 11-13 10-7-1-11-7-10-13l17-120zM124 160c0-6 5-11 12-11 6 0 12 5 12 11l0 123c0 6-6 11-12 11-7 0-12-5-12-11l0-123z"/></svg>